<?xml version="1.0" encoding="utf-8"?>
<!-- Generator: Adobe Illustrator 16.0.0, SVG Export Plug-In . SVG Version: 6.00 Build 0)  -->
<!DOCTYPE svg PUBLIC "-//W3C//DTD SVG 1.1//EN" "http://www.w3.org/Graphics/SVG/1.1/DTD/svg11.dtd">
<svg version="1.1" id="Layer_1" xmlns="http://www.w3.org/2000/svg" xmlns:xlink="http://www.w3.org/1999/xlink" x="0px" y="0px"
	 width="28.35px" height="28.35px" viewBox="0 0 28.35 28.35" enable-background="new 0 0 28.35 28.35" xml:space="preserve">
<g>
	<g>
		<path fill="#FFFFFF" d="M19.963,16.13c-1.873,0-3.372,0.5-4.497,1.124c1.749,1.499,2.499,3.248,2.624,3.373l0.125,0.25v2.748
			h9.992v-2.497C28.084,21.128,26.083,16.13,19.963,16.13z"/>
	</g>
	<g>
		<circle fill="#FFFFFF" cx="19.963" cy="9.26" r="4.372"/>
	</g>
</g>
<g>
	<path fill="#FFFFFF" d="M4.349,9.26c0-2.373,1.998-4.372,4.372-4.372c2.373,0,4.372,1.999,4.372,4.372
		c0,2.375-1.999,4.372-4.372,4.372C6.347,13.632,4.349,11.634,4.349,9.26z M8.721,16.13c-6.121,0-8.12,4.998-8.12,4.998v2.497H16.84
		v-2.497C16.84,21.128,14.842,16.13,8.721,16.13z"/>
</g>
</svg>
