<?xml version="1.0" encoding="utf-8"?>
<!-- Generator: Adobe Illustrator 16.0.0, SVG Export Plug-In . SVG Version: 6.00 Build 0)  -->
<!DOCTYPE svg PUBLIC "-//W3C//DTD SVG 1.1//EN" "http://www.w3.org/Graphics/SVG/1.1/DTD/svg11.dtd">
<svg version="1.1" id="Layer_1" xmlns="http://www.w3.org/2000/svg" xmlns:xlink="http://www.w3.org/1999/xlink" x="0px" y="0px"
	 width="500px" height="500px" viewBox="0 0 500 500" enable-background="new 0 0 500 500" xml:space="preserve">
<path fill="#FFFFFF" d="M415.762,346.214c-19.078-24.896-42.155-41.063-75.223-50.235l-30.983,108.475
	c0,9.992-8.181,18.172-18.172,18.172c-9.987,0-18.169-8.18-18.169-18.172v-86.311c0-12.537-10.178-22.716-22.715-22.716
	c-12.536,0-22.713,10.179-22.713,22.716v86.311c0,9.992-8.181,18.172-18.17,18.172c-9.992,0-18.173-8.18-18.173-18.172
	l-30.983-108.475c-33.068,9.262-56.145,25.34-75.221,50.235c-7.542,9.812-11.64,29.527-11.908,40.07c0.09,2.725,0,5.905,0,9.082
	v18.172v18.173c0,20.078,16.264,36.34,36.343,36.34h281.648c20.078,0,36.345-16.262,36.345-36.34v-18.173v-18.172
	c0-3.177-0.089-6.357,0-9.082C427.393,375.741,423.3,356.025,415.762,346.214z M155.102,128.073
	c0,53.059,33.078,131.013,95.398,131.013c61.237,0,95.396-77.954,95.396-131.013c0-53.057-42.701-96.124-95.396-96.124
	C197.806,31.949,155.102,75.016,155.102,128.073z"/>
</svg>
